<?xml version="1.0" encoding="utf-8"?>
<!-- Generator: Adobe Illustrator 24.0.0, SVG Export Plug-In . SVG Version: 6.00 Build 0)  -->
<svg version="1.1" id="Layer_1" xmlns="http://www.w3.org/2000/svg" xmlns:xlink="http://www.w3.org/1999/xlink" x="0px" y="0px"
	 viewBox="0 0 536.7 274.5" style="enable-background:new 0 0 536.7 274.5;" xml:space="preserve">
<style type="text/css">
	.st0{fill-rule:evenodd;clip-rule:evenodd;fill:#FFFFFF;}
</style>
<path class="st0" d="M93.6,156.3c32.6,0,59.1,26.5,59.1,59.1c0,32.6-26.5,59.1-59.1,59.1c-32.6,0-59.1-26.5-59.1-59.1
	C34.5,182.7,61,156.3,93.6,156.3L93.6,156.3z M93.6,183.3c-17.7,0-32,14.4-32,32s14.4,32,32,32c17.7,0,32-14.4,32-32
	C125.6,197.7,111.3,183.3,93.6,183.3z M93.6,200.8c8,0,14.5,6.5,14.5,14.5c0,8-6.5,14.5-14.5,14.5c-8,0-14.5-6.5-14.5-14.5
	C79.1,207.3,85.6,200.8,93.6,200.8z"/>
<path class="st0" d="M421.1,156.3c32.6,0,59.1,26.5,59.1,59.1c0,32.6-26.5,59.1-59.1,59.1c-32.6,0-59.1-26.5-59.1-59.1
	C362,182.7,388.5,156.3,421.1,156.3z M421.1,183.3c-17.7,0-32,14.4-32,32s14.4,32,32,32c17.7,0,32-14.4,32-32
	C453.1,197.7,438.8,183.3,421.1,183.3L421.1,183.3z M421.1,200.8c8,0,14.5,6.5,14.5,14.5c0,8-6.5,14.5-14.5,14.5
	c-8,0-14.5-6.5-14.5-14.5C406.6,207.3,413.1,200.8,421.1,200.8L421.1,200.8z"/>
<path class="st0" d="M10.9,123c12.6-19.9,34.8-33.1,60-33.1h28.9c5,0,9.7-2.1,13-5.8c10.8-12,36.1-40.3,54.3-60.7
	C180.5,8.5,199.5,0,219.4,0h162c14.9,0,29.2,6.4,39.1,17.5C438.8,38,468.2,70.8,480.1,84c3.3,3.7,8.1,5.8,13,5.8h8.6
	c9.3,0,18.2,3.7,24.7,10.3c6.6,6.6,10.3,15.5,10.3,24.8v73c0,9.7-7.8,17.5-17.5,17.5h-21.5c0-42.3-34.3-76.6-76.6-76.6
	c-42.3,0-76.6,34.3-76.6,76.6H170.2c0-42.3-34.3-76.6-76.6-76.6c-42.3,0-76.6,34.3-76.6,76.6c-9.4-0.3-17-8-17-17.5v-37.1
	c0-7.3,1.1-14.3,3.1-20.9c1,0.4,2,0.6,3.1,0.6h24.2c4.8,0,8.8-3.9,8.8-8.8s-3.9-8.8-8.8-8.8L10.9,123L10.9,123z M249.1,128.3h22.9
	c4.8,0,8.8-3.9,8.8-8.8s-3.9-8.8-8.8-8.8h-22.9c-4.8,0-8.8,3.9-8.8,8.8S244.2,128.3,249.1,128.3z M381.1,128.3h22.9
	c4.8,0,8.8-3.9,8.8-8.8s-3.9-8.8-8.8-8.8h-22.9c-4.8,0-8.8,3.9-8.8,8.8S376.2,128.3,381.1,128.3z M309.3,31.1h60.6
	c7.5,0,14.6,3.2,19.6,8.7c9.6,10.7,25.8,28.8,35.7,39.9c1.5,1.7,1.9,4.2,1,6.3c-0.9,2.1-3,3.5-5.3,3.4L309.3,89L309.3,31.1z
	 M291.8,31.1V89l-123.3-0.5c-2.3,0-4.4-1.4-5.3-3.5c-0.9-2.1-0.5-4.6,1-6.3c7.4-8.2,18.1-20.3,27-30.2c10-11.1,24.2-17.5,39.1-17.5
	L291.8,31.1z"/>
</svg>
