<?xml version="1.0" encoding="utf-8"?>
<!-- Generator: Adobe Illustrator 24.0.0, SVG Export Plug-In . SVG Version: 6.00 Build 0)  -->
<svg version="1.1" id="Layer_1" xmlns="http://www.w3.org/2000/svg" xmlns:xlink="http://www.w3.org/1999/xlink" x="0px" y="0px"
	 viewBox="0 0 336.3 273.5" style="enable-background:new 0 0 336.3 273.5;" xml:space="preserve">
<style type="text/css">
	.st0{fill:#44AF2B;}
</style>
<path class="st0" d="M325.1,43.4L138.3,230.2L106,262.6l-32.4-32.4l-32.3-32.3l-30.1-30.2l32.3-32.3l62.5,62.5L292.9,11L325.1,43.4z
	"/>
<path class="st0" d="M317.3,35.4c-27.3,27.3-54.7,54.7-82,82c-33.8,33.8-67.5,67.5-101.4,101.4c-12,12-23.9,24-35.8,35.8h15.8
	L42.3,183c-7.7-7.7-15.5-15.5-23.2-23.3v15.8l32.3-32.3H35.6c20.8,20.8,41.7,41.7,62.5,62.5c4.3,4.3,11.5,4.3,15.8,0
	c21.1-21.1,42-42,63.1-63.1L277.5,42.2c7.7-7.7,15.5-15.5,23.2-23.2h-15.8c10.8,10.8,21.5,21.5,32.3,32.3
	c10.2,10.2,26.1-5.6,15.8-15.8L300.7,3.2c-4.3-4.3-11.5-4.3-15.8,0L98.1,190h15.8c-20.8-20.8-41.7-41.7-62.5-62.5
	c-4.3-4.3-11.5-4.3-15.8,0C24.9,138.3,14.1,149,3.4,159.8c-4.3,4.3-4.3,11.5,0,15.8l94.8,94.8c4.3,4.3,11.5,4.3,15.8,0
	c23-23,45.9-45.9,68.9-69c39.9-39.9,79.7-79.7,119.5-119.5c10.2-10.2,20.5-20.5,30.7-30.7C343.3,41,327.5,25.3,317.3,35.4
	L317.3,35.4z"/>
<path class="st0" d="M11.3,156.5c-1.6-0.1-3,0.2-4.4,1c-1.3,0.4-2.6,1.2-3.6,2.4c-1.1,1-1.9,2.2-2.4,3.6c-0.7,1.3-1,2.8-1,4.4
	c0.1,1,0.2,2,0.4,3c0.6,1.9,1.5,3.6,2.9,4.9c2.2,2,4.9,3.2,8,3.2c1.6,0.1,3-0.2,4.4-1c1.3-0.4,2.6-1.2,3.6-2.4
	c1.1-1,1.9-2.2,2.4-3.6c0.7-1.3,1-2.8,1-4.4c-0.1-1-0.2-2-0.4-3c-0.6-1.9-1.5-3.6-2.9-4.9C17,157.9,14.3,156.5,11.3,156.5z"/>
</svg>
