<?xml version="1.0" encoding="utf-8"?>
<!-- Generator: Adobe Illustrator 24.0.0, SVG Export Plug-In . SVG Version: 6.00 Build 0)  -->
<svg version="1.1" id="Layer_1" xmlns="http://www.w3.org/2000/svg" xmlns:xlink="http://www.w3.org/1999/xlink" x="0px" y="0px"
	 viewBox="0 0 547.8 547.8" style="enable-background:new 0 0 547.8 547.8;" xml:space="preserve">
<style type="text/css">
	.st0{fill-rule:evenodd;clip-rule:evenodd;fill:#FFFFFF;}
</style>
<path class="st0" d="M331.6,6.1l-13.4,30.6c16.2,3,31.8,7.6,46.7,13.7L395,28.2c22.9,11.3,44,25.7,62.7,42.7l-26.9,19.8
	c12.3,10.6,23.6,22.3,33.6,35.2l37.2-4.1c14,20.9,25.2,43.8,33.1,68.3l-33.2,3.7c5.3,15.1,9.2,30.9,11.4,47.2l34.3,15
	c0.4,6,0.6,12,0.6,18c0,19.8-2.1,39.1-6.1,57.7l-30.6-13.4c-3,16.2-7.6,31.8-13.7,46.7l22.2,30.2c-11.3,22.9-25.7,44-42.7,62.7
	l-19.8-26.9c-10.6,12.3-22.3,23.6-35.2,33.6l4.1,37.2c-20.9,14-43.8,25.2-68.3,33.1l-3.7-33.2c-15.1,5.3-30.9,9.2-47.2,11.4
	l-15,34.3c-6,0.4-12,0.6-18,0.6c-19.8,0-39.1-2.1-57.7-6.1l13.4-30.6c-16.2-3-31.8-7.6-46.7-13.7l-30.2,22.2
	c-22.9-11.3-44-25.7-62.7-42.7l26.9-19.8c-12.3-10.6-23.6-22.3-33.6-35.2l-37.2,4.1c-14-20.9-25.2-43.8-33.1-68.3l33.2-3.7
	c-5.3-15.1-9.2-30.9-11.4-47.2l-34.3-15c-0.4-6-0.6-12-0.6-18c0-19.8,2.1-39.1,6.1-57.7l30.6,13.4c3-16.2,7.6-31.8,13.7-46.7
	l-22.2-30.2c11.3-22.9,25.7-44,42.7-62.7L90.7,117c10.6-12.3,22.3-23.6,35.2-33.6l-4.1-37.2c20.9-14,43.8-25.2,68.3-33.1l3.7,33.2
	c15.1-5.3,30.9-9.2,47.2-11.4l15-34.3c6-0.4,12-0.6,18-0.6C293.7,0,313,2.1,331.6,6.1L331.6,6.1z M274,99.2
	C426.7,99.2,503.5,280.3,404,391c-72.8,81-202.8,75.9-269.1-10.8C48.5,267,127.8,99.2,274,99.2L274,99.2z M269.7,394.5l-10.4-52
	c-2.4-0.5-4.7-1.1-7-1.8l-35,39.9l-6.1,44.8l-7.9-2.1l4.6-34.7L180,409.8l-5.8-5.8l35.8-27.7L227,326c-1.8-1.6-3.5-3.3-5.1-5.1
	l-50.3,17.1l-27.7,35.8l-5.8-5.8l21.3-27.8l-34.7,4.6l-2.1-7.9l44.8-6.1l40-35.1c-0.7-2.3-1.4-4.5-1.9-6.8l-52.2-10.4l-41.9,17.1
	l-2.1-7.9l32.3-13.4l-32.3-13.4l2.1-7.9l41.9,17.1l52-10.4c0.5-2.4,1.1-4.7,1.9-7.1l-39.8-35l-44.8-6.1l2.1-8l34.7,4.6L138,180
	l5.8-5.8l27.7,35.8l50.2,17c1.6-1.8,3.3-3.5,5.1-5.2l-17-50.2l-35.8-27.7l5.8-5.8l27.8,21.3l-4.6-34.7l7.9-2.1l6.1,44.8l35,39.9
	c2.3-0.7,4.6-1.3,6.9-1.8l10.4-52.1l-17.1-41.9l7.9-2.1l13.4,32.3l13.4-32.3l7.9,2.1l-17.1,41.9l10.4,52.1c2.4,0.5,4.7,1.1,7,1.8
	l35-39.9l6.1-44.8l8,2.1l-4.6,34.7l27.8-21.3l5.8,5.8l-35.8,27.7l-17,50.2c1.8,1.6,3.5,3.3,5.2,5.2l50.2-17l27.7-35.8l5.8,5.8
	l-21.3,27.8l34.7-4.6l2.1,8l-44.8,6.1l-39.8,34.9c0.7,2.3,1.4,4.7,1.8,7.1l52,10.3l41.9-17.1l2.1,7.9l-32.3,13.4l32.3,13.4l-2.1,7.9
	l-41.9-17.1l-52.2,10.4c-0.5,2.3-1.1,4.6-1.9,6.8l40,35.1l44.8,6.1l-2.1,7.9l-34.7-4.6l21.3,27.8l-5.8,5.8l-27.7-35.8l-50.3-17.1
	c-1.6,1.8-3.3,3.5-5.1,5.2l17,50.2l35.8,27.7l-5.8,5.8L340,388.5l4.6,34.7l-8,2.1l-6.1-44.8l-35-39.8c-2.3,0.7-4.7,1.3-7,1.8
	l-10.4,52l17.1,41.9l-7.9,2.1l-13.4-32.3l-13.4,32.3l-7.9-2.1L269.7,394.5L269.7,394.5z M315.4,232.5c-4.8-4.8-12.9-1.6-13.3,5.1
	c-0.3,4.8,4,8.8,8.8,8.1C317.2,244.8,319.9,237,315.4,232.5L315.4,232.5z M273.9,215.3c-6.4,0-10.1,7.4-6.2,12.5
	c2.9,3.8,8.8,4.1,12,0.5C284.2,223.3,280.7,215.3,273.9,215.3L273.9,215.3z M232.5,232.5c-4.5,4.5-1.9,12.4,4.5,13.2
	c4.8,0.6,9.1-3.3,8.8-8.1C245.4,230.9,237.3,227.7,232.5,232.5L232.5,232.5z M215.3,273.9c0,6.4,7.4,10.1,12.5,6.2
	c3.8-2.9,4.1-8.8,0.5-12C223.3,263.6,215.3,267.1,215.3,273.9L215.3,273.9z M232.5,315.3c4.5,4.5,12.4,1.9,13.2-4.5
	c0.6-4.8-3.3-9.1-8.1-8.8C230.9,302.4,227.8,310.6,232.5,315.3L232.5,315.3z M273.9,332.5c6.7,0,10.3-8,5.8-13
	c-3.3-3.6-9-3.4-12,0.5C263.9,325.1,267.5,332.5,273.9,332.5L273.9,332.5z M315.4,315.3c4.8-4.8,1.6-12.9-5.1-13.3
	c-4.8-0.3-8.8,4-8.1,8.8C303,317.2,310.8,319.9,315.4,315.3L315.4,315.3z M332.5,273.9c0-6.7-8-10.3-13-5.8c-3.6,3.3-3.4,9,0.5,12
	C325.1,283.9,332.5,280.3,332.5,273.9L332.5,273.9z M297.3,250.5c-20.2-20.2-54.9-6.8-56.4,21.6c-1.1,20.5,17,37.2,37.4,34.5
	C305.3,303,316.5,269.8,297.3,250.5L297.3,250.5z M295.5,252.3c17.8,17.8,7.4,48.6-17.6,52c-18.9,2.5-35.6-12.9-34.6-32
	C244.8,246,276.9,233.6,295.5,252.3L295.5,252.3z M267.7,343.7l6.2,31.9l6.2-31.9c-2.1,0.2-4.1,0.3-6.2,0.3
	C271.9,344,269.8,343.9,267.7,343.7L267.7,343.7z M303.6,337.6l21.2,24.4l-10.5-30.6C310.9,333.8,307.3,335.9,303.6,337.6
	L303.6,337.6z M331.2,314.2l30.8,10.6l-24.6-21.4C335.7,307.1,333.6,310.7,331.2,314.2L331.2,314.2z M210.5,303.4l-24.6,21.4
	l30.8-10.6C214.3,310.7,212.2,307.1,210.5,303.4L210.5,303.4z M233.6,331.4L223.1,362l21.2-24.4C240.5,335.8,237,333.7,233.6,331.4
	L233.6,331.4z M343.7,280.1l31.9-6.2l-31.8-6.2C344.1,271.9,344.1,276,343.7,280.1L343.7,280.1z M337.6,244.3l24.4-21.2l-30.6,10.6
	C333.8,237,335.8,240.5,337.6,244.3L337.6,244.3z M314.2,216.4l10.5-30.6l-21.3,24.5C307.2,212,310.8,214.1,314.2,216.4L314.2,216.4
	z M280.1,204.1l-6.2-31.9l-6.2,31.9C271.8,203.8,276,203.8,280.1,204.1L280.1,204.1z M244.3,210.3l-21.3-24.5l10.6,30.6
	C237,214.1,240.6,212.1,244.3,210.3L244.3,210.3z M216.5,233.6l-30.6-10.5l24.4,21.2C212,240.6,214.1,237,216.5,233.6L216.5,233.6z
	 M204,267.8l-31.8,6.2l31.9,6.2C203.7,276,203.7,271.9,204,267.8L204,267.8z M273.9,87.9c162.7,0,244.5,192.9,138.6,310.8
	c-77.6,86.3-216.1,80.8-286.6-11.5C33.7,266.7,118.2,87.9,273.9,87.9L273.9,87.9z"/>
</svg>
