<?xml version="1.0" encoding="utf-8"?>
<!-- Generator: Adobe Illustrator 24.0.0, SVG Export Plug-In . SVG Version: 6.00 Build 0)  -->
<svg version="1.1" id="Layer_1" xmlns="http://www.w3.org/2000/svg" xmlns:xlink="http://www.w3.org/1999/xlink" x="0px" y="0px"
	 viewBox="0 0 1514 496" style="enable-background:new 0 0 1514 496;" xml:space="preserve">
<style type="text/css">
	.st0{fill:#FFFFFF;}
</style>
<path class="st0" d="M488,253.8C488,395.3,391.1,496,248,496C110.8,496,0,385.2,0,248S110.8,0,248,0c66.8,0,123,24.5,166.3,64.9
	l-67.5,64.9C258.5,44.6,94.3,108.6,94.3,248c0,86.5,69.1,156.6,153.7,156.6c98.2,0,135-70.4,140.8-106.9H248v-85.3h236.1
	C486.4,225.1,488,237.3,488,253.8L488,253.8z"/>
<g>
	<g>
		<path class="st0" d="M736.6,173.5c-5,1.8-15,4.8-26.8,4.8c-13.2,0-24-3.4-32.6-11.5c-7.5-7.2-12.2-18.9-12.2-32.4
			c0.1-26,18-45,47.2-45c10.1,0,18,2.2,21.7,4l-2.7,9.2c-4.7-2.1-10.5-3.7-19.3-3.7c-21.2,0-35,13.2-35,35
			c0,22.1,13.3,35.2,33.6,35.2c7.4,0,12.4-1,15-2.3v-26h-17.7v-9.1h28.7V173.5z"/>
		<path class="st0" d="M810.7,145.6c0,23.1-16,33.2-31.2,33.2c-16.9,0-30-12.4-30-32.2c0-20.9,13.7-33.2,31-33.2
			C798.5,113.4,810.7,126.5,810.7,145.6z M761,146.3c0,13.7,7.9,24,19,24c10.9,0,19-10.2,19-24.3c0-10.6-5.3-24-18.7-24
			C766.8,122,761,134.4,761,146.3z"/>
		<path class="st0" d="M881.6,145.6c0,23.1-16,33.2-31.2,33.2c-16.9,0-30-12.4-30-32.2c0-20.9,13.7-33.2,31-33.2
			C869.5,113.4,881.6,126.5,881.6,145.6z M832,146.3c0,13.7,7.9,24,19,24c10.9,0,19-10.2,19-24.3c0-10.6-5.3-24-18.7-24
			C837.8,122,832,134.4,832,146.3z"/>
		<path class="st0" d="M949.9,114.8c-0.3,4.5-0.5,9.6-0.5,17.2v36.3c0,14.4-2.8,23.1-8.9,28.6c-6.1,5.7-14.9,7.5-22.8,7.5
			c-7.5,0-15.8-1.8-20.8-5.2l2.8-8.7c4.1,2.6,10.6,4.9,18.4,4.9c11.6,0,20.2-6.1,20.2-21.8v-7H938c-3.5,5.8-10.2,10.5-19.9,10.5
			c-15.5,0-26.6-13.2-26.6-30.5c0-21.2,13.8-33.2,28.2-33.2c10.9,0,16.8,5.7,19.5,10.9h0.3l0.5-9.4H949.9z M938.1,139.5
			c0-1.9-0.1-3.6-0.6-5.2c-2.1-6.6-7.6-12-15.9-12c-10.9,0-18.6,9.2-18.6,23.7c0,12.3,6.2,22.5,18.5,22.5c7,0,13.3-4.4,15.8-11.6
			c0.6-1.9,0.9-4.1,0.9-6.1V139.5z"/>
		<path class="st0" d="M968.3,85.6h11.4v91.8h-11.4V85.6z"/>
		<path class="st0" d="M1005.1,148.2c0.3,15.4,10.1,21.7,21.5,21.7c8.1,0,13.1-1.4,17.3-3.2l1.9,8.1c-4,1.8-10.9,3.9-20.8,3.9
			c-19.3,0-30.8-12.7-30.8-31.5s11.1-33.7,29.3-33.7c20.4,0,25.9,18,25.9,29.5c0,2.3-0.3,4.1-0.4,5.3H1005.1z M1038.5,140.1
			c0.1-7.2-3-18.5-15.8-18.5c-11.5,0-16.5,10.6-17.5,18.5H1038.5z"/>
		<path class="st0" d="M1091.4,91.5c5.7-1.2,13.8-1.8,21.6-1.8c12,0,19.8,2.2,25.2,7.1c4.4,3.9,6.9,9.8,6.9,16.5
			c0,11.5-7.2,19.1-16.4,22.2v0.4c6.7,2.3,10.7,8.5,12.8,17.6c2.8,12.2,4.9,20.6,6.7,23.9h-11.6c-1.4-2.5-3.4-10-5.8-20.8
			c-2.6-12-7.2-16.5-17.5-16.9h-10.6v37.8h-11.2V91.5z M1102.6,131.1h11.5c12,0,19.7-6.6,19.7-16.5c0-11.2-8.1-16.2-20-16.3
			c-5.4,0-9.3,0.5-11.1,1V131.1z"/>
		<path class="st0" d="M1167.4,148.2c0.3,15.4,10.1,21.7,21.5,21.7c8.1,0,13.1-1.4,17.3-3.2l1.9,8.1c-4,1.8-10.9,3.9-20.8,3.9
			c-19.3,0-30.8-12.7-30.8-31.5s11.1-33.7,29.3-33.7c20.4,0,25.9,18,25.9,29.5c0,2.3-0.3,4.1-0.4,5.3H1167.4z M1200.7,140.1
			c0.1-7.2-3-18.5-15.8-18.5c-11.5,0-16.5,10.6-17.5,18.5H1200.7z"/>
		<path class="st0" d="M1230.2,114.8l12.3,35.2c2.1,5.7,3.8,10.9,5,16h0.4c1.4-5.2,3.2-10.3,5.3-16l12.2-35.2h11.9l-24.6,62.6h-10.9
			l-23.8-62.6H1230.2z"/>
		<path class="st0" d="M1300.7,97.3c0.1,3.9-2.7,7-7.2,7c-4,0-6.9-3.1-6.9-7c0-4,3-7.1,7.1-7.1C1298,90.2,1300.7,93.3,1300.7,97.3z
			 M1288,177.4v-62.6h11.4v62.6H1288z"/>
		<path class="st0" d="M1324.6,148.2c0.3,15.4,10.1,21.7,21.5,21.7c8.1,0,13.1-1.4,17.3-3.2l1.9,8.1c-4,1.8-10.9,3.9-20.8,3.9
			c-19.3,0-30.8-12.7-30.8-31.5s11.1-33.7,29.3-33.7c20.4,0,25.9,18,25.9,29.5c0,2.3-0.3,4.1-0.4,5.3H1324.6z M1357.9,140.1
			c0.1-7.2-3-18.5-15.8-18.5c-11.5,0-16.5,10.6-17.5,18.5H1357.9z"/>
		<path class="st0" d="M1387.6,114.8l8.3,31.8c1.8,7,3.5,13.4,4.7,19.9h0.4c1.4-6.3,3.5-13.1,5.6-19.8l10.2-31.9h9.6l9.7,31.3
			c2.3,7.5,4.1,14.1,5.6,20.4h0.4c1-6.3,2.7-12.9,4.8-20.3l8.9-31.4h11.2l-20.2,62.6h-10.3l-9.6-29.9c-2.2-7-4-13.2-5.6-20.6h-0.3
			c-1.6,7.5-3.5,14-5.7,20.7l-10.1,29.7h-10.3l-18.9-62.6H1387.6z"/>
		<path class="st0" d="M1475.9,165.8c3.4,2.2,9.3,4.5,15,4.5c8.3,0,12.2-4.1,12.2-9.3c0-5.4-3.2-8.4-11.6-11.5
			c-11.2-4-16.5-10.2-16.5-17.7c0-10.1,8.1-18.4,21.6-18.4c6.3,0,11.9,1.8,15.4,3.9l-2.8,8.3c-2.5-1.6-7-3.6-12.8-3.6
			c-6.7,0-10.5,3.9-10.5,8.5c0,5.2,3.8,7.5,11.9,10.6c10.9,4.1,16.4,9.6,16.4,18.9c0,11-8.5,18.7-23.4,18.7
			c-6.9,0-13.2-1.7-17.6-4.3L1475.9,165.8z"/>
	</g>
	<g>
		<polygon class="st0" points="702,289 679.2,301 683.6,275.5 665.1,257.5 690.6,253.8 702,230.7 713.4,253.8 739,257.5 
			720.5,275.5 724.8,301 		"/>
		<polygon class="st0" points="806.2,289 783.3,301 787.7,275.5 769.2,257.5 794.8,253.8 806.2,230.7 817.6,253.8 843.1,257.5 
			824.6,275.5 829,301 		"/>
		<polygon class="st0" points="910.3,289 887.5,301 891.9,275.5 873.4,257.5 898.9,253.8 910.3,230.7 921.7,253.8 947.3,257.5 
			928.8,275.5 933.2,301 		"/>
		<polygon class="st0" points="1014.5,289 991.6,301 996,275.5 977.5,257.5 1003.1,253.8 1014.5,230.7 1025.9,253.8 1051.4,257.5 
			1032.9,275.5 1037.3,301 		"/>
		<polygon class="st0" points="1118.6,289 1095.8,301 1100.2,275.5 1081.7,257.5 1107.2,253.8 1118.6,230.7 1130,253.8 
			1155.6,257.5 1137.1,275.5 1141.5,301 		"/>
	</g>
	<g>
		<path class="st0" d="M689.9,409.5v-13.8h-23.6v-4.5l22.7-32.5h7.4v31.6h7.1v5.4h-7.1v13.8H689.9z M689.9,390.3v-17
			c0-2.7,0.1-5.3,0.2-8h-0.2c-1.6,3-2.8,5.2-4.2,7.5l-12.4,17.3v0.2H689.9z"/>
		<path class="st0" d="M709.3,405.4c0-2.9,2-4.9,4.7-4.9s4.6,2,4.6,4.9c0,2.8-1.8,4.9-4.7,4.9C711.1,410.4,709.3,408.3,709.3,405.4z
			"/>
		<path class="st0" d="M724.3,396.6c0-6.4,3.8-10.9,10.1-13.6l-0.1-0.2c-5.6-2.7-8.1-7-8.1-11.4c0-8.1,6.8-13.5,15.7-13.5
			c9.9,0,14.8,6.2,14.8,12.5c0,4.3-2.1,8.9-8.4,11.9v0.2c6.3,2.5,10.2,7,10.2,13.1c0,8.8-7.6,14.8-17.3,14.8
			C730.7,410.4,724.3,404,724.3,396.6z M751.7,396.3c0-6.2-4.3-9.2-11.2-11.1c-5.9,1.7-9.2,5.6-9.2,10.5c-0.2,5.2,3.7,9.7,10.2,9.7
			C747.7,405.4,751.7,401.5,751.7,396.3z M732.7,370.9c0,5.1,3.8,7.8,9.7,9.4c4.4-1.5,7.7-4.6,7.7-9.2c0-4.1-2.4-8.3-8.6-8.3
			C735.9,362.7,732.7,366.5,732.7,370.9z"/>
		<path class="st0" d="M818.1,390.3c0,14-9.7,20.1-18.8,20.1c-10.2,0-18.1-7.5-18.1-19.5c0-12.7,8.3-20.1,18.8-20.1
			C810.7,370.8,818.1,378.7,818.1,390.3z M788,390.7c0,8.3,4.8,14.5,11.5,14.5c6.6,0,11.5-6.2,11.5-14.7c0-6.4-3.2-14.5-11.3-14.5
			C791.5,376,788,383.5,788,390.7z"/>
		<path class="st0" d="M858.4,399.2c0,3.9,0.1,7.4,0.3,10.3h-6.1l-0.4-6.2h-0.2c-1.8,3.1-5.8,7-12.5,7c-5.9,0-13.1-3.3-13.1-16.6
			v-22.1h6.9v21c0,7.2,2.2,12,8.4,12c4.6,0,7.8-3.2,9.1-6.3c0.4-1,0.6-2.3,0.6-3.5v-23.2h6.9V399.2z"/>
		<path class="st0" d="M878.1,360.8v10.9h9.9v5.2h-9.9v20.4c0,4.7,1.3,7.4,5.2,7.4c1.8,0,3.1-0.2,4-0.5l0.3,5.2
			c-1.3,0.5-3.4,0.9-6.1,0.9c-3.2,0-5.8-1-7.4-2.9c-2-2-2.7-5.4-2.7-9.9v-20.6h-5.9v-5.2h5.9v-9.1L878.1,360.8z"/>
		<path class="st0" d="M946.6,390.3c0,14-9.7,20.1-18.8,20.1c-10.2,0-18.1-7.5-18.1-19.5c0-12.7,8.3-20.1,18.8-20.1
			C939.2,370.8,946.6,378.7,946.6,390.3z M916.5,390.7c0,8.3,4.8,14.5,11.5,14.5c6.6,0,11.5-6.2,11.5-14.7c0-6.4-3.2-14.5-11.3-14.5
			C920.1,376,916.5,383.5,916.5,390.7z"/>
		<path class="st0" d="M956,409.5v-32.6h-5.3v-5.2h5.3v-1.8c0-5.3,1.2-10.2,4.4-13.2c2.6-2.5,6-3.5,9.2-3.5c2.4,0,4.5,0.5,5.9,1.1
			l-0.9,5.3c-1-0.5-2.4-0.9-4.4-0.9c-5.9,0-7.4,5.2-7.4,10.9v2h9.2v5.2h-9.2v32.6H956z"/>
		<path class="st0" d="M1022.8,364.5h-19.4l-2,13.1c1.2-0.2,2.3-0.3,4.1-0.3c3.9,0,7.8,0.9,10.9,2.7c4,2.3,7.3,6.6,7.3,13.1
			c0,9.9-7.9,17.4-18.9,17.4c-5.6,0-10.2-1.6-12.7-3.1l1.7-5.2c2.1,1.3,6.3,2.8,10.9,2.8c6.5,0,12-4.2,12-11
			c-0.1-6.6-4.5-11.3-14.6-11.3c-2.9,0-5.2,0.3-7,0.5l3.3-24.4h24.3V364.5z"/>
	</g>
</g>
</svg>
