<?xml version="1.0" encoding="utf-8"?>
<!-- Generator: Adobe Illustrator 24.0.0, SVG Export Plug-In . SVG Version: 6.00 Build 0)  -->
<svg version="1.1" id="Layer_1" xmlns="http://www.w3.org/2000/svg" xmlns:xlink="http://www.w3.org/1999/xlink" x="0px" y="0px"
	 viewBox="0 0 384.2 78.4" style="enable-background:new 0 0 384.2 78.4;" xml:space="preserve">
<style type="text/css">
	.st0{fill:#FFFFFF;}
</style>
<g>
	<g>
		<path class="st0" d="M179.3,31.5c-0.7,0.3-2,0.7-3.7,0.7c-3.9,0-6.9-2.5-6.9-7.1c0-4.4,3-7.3,7.3-7.3c1.7,0,2.8,0.4,3.3,0.6
			l-0.4,1.5c-0.7-0.3-1.7-0.6-2.8-0.6c-3.3,0-5.5,2.1-5.5,5.8c0,3.4,2,5.6,5.4,5.6c1.1,0,2.2-0.2,2.9-0.6L179.3,31.5z"/>
		<path class="st0" d="M181.5,17.2h1.8V32h-1.8V17.2z"/>
		<path class="st0" d="M188.5,19.1c0,0.6-0.4,1.1-1.2,1.1c-0.6,0-1.1-0.5-1.1-1.1c0-0.6,0.5-1.1,1.1-1.1
			C188,17.9,188.5,18.4,188.5,19.1z M186.4,32v-10h1.8v10H186.4z"/>
		<path class="st0" d="M198.4,31.6c-0.5,0.2-1.5,0.6-2.9,0.6c-3,0-5-2.1-5-5.1c0-3.1,2.1-5.3,5.4-5.3c1.1,0,2,0.3,2.5,0.5l-0.4,1.4
			c-0.4-0.2-1.1-0.5-2.1-0.5c-2.3,0-3.5,1.7-3.5,3.8c0,2.3,1.5,3.8,3.5,3.8c1,0,1.7-0.3,2.2-0.5L198.4,31.6z"/>
		<path class="st0" d="M202.4,26.5L202.4,26.5c0.3-0.4,0.6-0.8,0.9-1.1l2.9-3.5h2.2l-3.9,4.1L209,32h-2.2l-3.5-4.8l-0.9,1V32h-1.8
			V17.2h1.8V26.5z"/>
		<path class="st0" d="M214.7,17.2h1.8v6.3h0c0.3-0.5,0.7-1,1.3-1.3c0.5-0.3,1.2-0.5,1.9-0.5c1.3,0,3.5,0.8,3.5,4.3v6h-1.8v-5.8
			c0-1.6-0.6-3-2.3-3c-1.2,0-2.1,0.8-2.4,1.8c-0.1,0.2-0.1,0.5-0.1,0.9V32h-1.8V17.2z"/>
		<path class="st0" d="M227.2,27.3c0,2.5,1.6,3.5,3.4,3.5c1.3,0,2.1-0.2,2.8-0.5l0.3,1.3c-0.6,0.3-1.7,0.6-3.3,0.6
			c-3.1,0-4.9-2-4.9-5.1s1.8-5.4,4.7-5.4c3.3,0,4.2,2.9,4.2,4.7c0,0.4,0,0.7-0.1,0.9H227.2z M232.6,26c0-1.2-0.5-3-2.5-3
			c-1.8,0-2.7,1.7-2.8,3H232.6z"/>
		<path class="st0" d="M236.6,25c0-1.2,0-2.2-0.1-3.1h1.6l0.1,2h0.1c0.5-1.3,1.6-2.2,2.8-2.2c0.2,0,0.4,0,0.5,0.1v1.7
			c-0.2,0-0.4-0.1-0.6-0.1c-1.3,0-2.2,1-2.4,2.3c0,0.2-0.1,0.5-0.1,0.9V32h-1.8V25z"/>
		<path class="st0" d="M244.2,27.3c0,2.5,1.6,3.5,3.4,3.5c1.3,0,2.1-0.2,2.8-0.5l0.3,1.3c-0.6,0.3-1.7,0.6-3.3,0.6
			c-3.1,0-4.9-2-4.9-5.1s1.8-5.4,4.7-5.4c3.3,0,4.2,2.9,4.2,4.7c0,0.4,0,0.7-0.1,0.9H244.2z M249.6,26c0-1.2-0.5-3-2.5-3
			c-1.8,0-2.7,1.7-2.8,3H249.6z"/>
		<path class="st0" d="M260.2,19v2.9h2.6v1.4h-2.6v5.4c0,1.2,0.4,2,1.4,2c0.5,0,0.8-0.1,1.1-0.1l0.1,1.4c-0.4,0.1-0.9,0.2-1.6,0.2
			c-0.9,0-1.5-0.3-2-0.8c-0.5-0.5-0.7-1.4-0.7-2.6v-5.5h-1.6v-1.4h1.6v-2.4L260.2,19z"/>
		<path class="st0" d="M273.8,26.8c0,3.7-2.6,5.3-5,5.3c-2.7,0-4.8-2-4.8-5.2c0-3.4,2.2-5.3,5-5.3C271.9,21.7,273.8,23.8,273.8,26.8
			z M265.9,26.9c0,2.2,1.3,3.9,3.1,3.9c1.7,0,3.1-1.6,3.1-3.9c0-1.7-0.9-3.9-3-3.9C266.8,23,265.9,25,265.9,26.9z"/>
		<path class="st0" d="M280.5,17.2h1.8V32h-1.8V17.2z"/>
		<path class="st0" d="M286.4,27.3c0,2.5,1.6,3.5,3.4,3.5c1.3,0,2.1-0.2,2.8-0.5l0.3,1.3c-0.6,0.3-1.7,0.6-3.3,0.6
			c-3.1,0-4.9-2-4.9-5.1s1.8-5.4,4.7-5.4c3.3,0,4.2,2.9,4.2,4.7c0,0.4,0,0.7-0.1,0.9H286.4z M291.8,26c0-1.2-0.5-3-2.5-3
			c-1.8,0-2.7,1.7-2.8,3H291.8z"/>
		<path class="st0" d="M301.4,32l-0.1-1.3h-0.1c-0.6,0.8-1.6,1.5-3.1,1.5c-2,0-3.1-1.4-3.1-2.9c0-2.4,2.2-3.8,6-3.7v-0.2
			c0-0.8-0.2-2.3-2.3-2.3c-0.9,0-1.9,0.3-2.6,0.7l-0.4-1.2c0.8-0.5,2-0.9,3.3-0.9c3.1,0,3.8,2.1,3.8,4.1v3.8c0,0.9,0,1.7,0.2,2.4
			H301.4z M301.1,26.8c-2,0-4.3,0.3-4.3,2.3c0,1.2,0.8,1.7,1.7,1.7c1.3,0,2.1-0.8,2.4-1.7c0.1-0.2,0.1-0.4,0.1-0.6V26.8z"/>
		<path class="st0" d="M306.4,21.9l2,5.6c0.3,0.9,0.6,1.7,0.8,2.6h0.1c0.2-0.8,0.5-1.7,0.9-2.6l2-5.6h1.9L310,32h-1.7l-3.8-10H306.4
			z"/>
		<path class="st0" d="M316.4,27.3c0,2.5,1.6,3.5,3.4,3.5c1.3,0,2.1-0.2,2.8-0.5l0.3,1.3c-0.6,0.3-1.7,0.6-3.3,0.6
			c-3.1,0-4.9-2-4.9-5.1s1.8-5.4,4.7-5.4c3.3,0,4.2,2.9,4.2,4.7c0,0.4,0,0.7-0.1,0.9H316.4z M321.8,26c0-1.2-0.5-3-2.5-3
			c-1.8,0-2.7,1.7-2.8,3H321.8z"/>
		<path class="st0" d="M335.8,32l-0.1-1.3h-0.1c-0.6,0.8-1.6,1.5-3.1,1.5c-2,0-3.1-1.4-3.1-2.9c0-2.4,2.2-3.8,6-3.7v-0.2
			c0-0.8-0.2-2.3-2.3-2.3c-0.9,0-1.9,0.3-2.6,0.7l-0.4-1.2c0.8-0.5,2-0.9,3.3-0.9c3.1,0,3.8,2.1,3.8,4.1v3.8c0,0.9,0,1.7,0.2,2.4
			H335.8z M335.5,26.8c-2,0-4.3,0.3-4.3,2.3c0,1.2,0.8,1.7,1.7,1.7c1.3,0,2.1-0.8,2.4-1.7c0.1-0.2,0.1-0.4,0.1-0.6V26.8z"/>
		<path class="st0" d="M221.2,56.2c-0.8,0.3-2.4,0.8-4.3,0.8c-2.1,0-3.9-0.5-5.2-1.8c-1.2-1.2-2-3-2-5.2c0-4.2,2.9-7.2,7.6-7.2
			c1.6,0,2.9,0.4,3.5,0.6l-0.4,1.5c-0.7-0.3-1.7-0.6-3.1-0.6c-3.4,0-5.6,2.1-5.6,5.6c0,3.5,2.1,5.6,5.4,5.6c1.2,0,2-0.2,2.4-0.4V51
			h-2.8v-1.5h4.6V56.2z"/>
		<path class="st0" d="M233.1,51.7c0,3.7-2.6,5.3-5,5.3c-2.7,0-4.8-2-4.8-5.2c0-3.4,2.2-5.3,5-5.3C231.1,46.6,233.1,48.7,233.1,51.7
			z M225.1,51.9c0,2.2,1.3,3.9,3.1,3.9c1.7,0,3.1-1.6,3.1-3.9c0-1.7-0.9-3.9-3-3.9C226.1,47.9,225.1,49.9,225.1,51.9z"/>
		<path class="st0" d="M244.5,51.7c0,3.7-2.6,5.3-5,5.3c-2.7,0-4.8-2-4.8-5.2c0-3.4,2.2-5.3,5-5.3C242.5,46.6,244.5,48.7,244.5,51.7
			z M236.5,51.9c0,2.2,1.3,3.9,3.1,3.9c1.7,0,3.1-1.6,3.1-3.9c0-1.7-0.9-3.9-3-3.9C237.4,47.9,236.5,49.9,236.5,51.9z"/>
		<path class="st0" d="M255.4,46.8c0,0.7-0.1,1.5-0.1,2.8v5.8c0,2.3-0.5,3.7-1.4,4.6c-1,0.9-2.4,1.2-3.7,1.2c-1.2,0-2.5-0.3-3.3-0.8
			l0.5-1.4c0.7,0.4,1.7,0.8,2.9,0.8c1.9,0,3.2-1,3.2-3.5v-1.1h0c-0.6,0.9-1.6,1.7-3.2,1.7c-2.5,0-4.3-2.1-4.3-4.9
			c0-3.4,2.2-5.3,4.5-5.3c1.7,0,2.7,0.9,3.1,1.7h0l0.1-1.5H255.4z M253.6,50.8c0-0.3,0-0.6-0.1-0.8c-0.3-1.1-1.2-1.9-2.6-1.9
			c-1.7,0-3,1.5-3,3.8c0,2,1,3.6,3,3.6c1.1,0,2.1-0.7,2.5-1.9c0.1-0.3,0.1-0.7,0.1-1V50.8z"/>
		<path class="st0" d="M258.4,42.1h1.8v14.7h-1.8V42.1z"/>
		<path class="st0" d="M264.3,52.2c0,2.5,1.6,3.5,3.4,3.5c1.3,0,2.1-0.2,2.8-0.5l0.3,1.3c-0.6,0.3-1.7,0.6-3.3,0.6
			c-3.1,0-4.9-2-4.9-5.1c0-3,1.8-5.4,4.7-5.4c3.3,0,4.2,2.9,4.2,4.7c0,0.4,0,0.7-0.1,0.9H264.3z M269.7,50.9c0-1.2-0.5-3-2.5-3
			c-1.8,0-2.7,1.7-2.8,3H269.7z"/>
		<path class="st0" d="M278.1,43.1c0.9-0.2,2.2-0.3,3.5-0.3c1.9,0,3.2,0.4,4,1.1c0.7,0.6,1.1,1.6,1.1,2.7c0,1.8-1.2,3.1-2.6,3.6v0.1
			c1.1,0.4,1.7,1.4,2.1,2.8c0.5,2,0.8,3.3,1.1,3.8h-1.9c-0.2-0.4-0.5-1.6-0.9-3.3c-0.4-1.9-1.2-2.7-2.8-2.7h-1.7v6.1h-1.8V43.1z
			 M279.9,49.4h1.8c1.9,0,3.2-1.1,3.2-2.7c0-1.8-1.3-2.6-3.2-2.6c-0.9,0-1.5,0.1-1.8,0.2V49.4z"/>
		<path class="st0" d="M290.3,52.2c0,2.5,1.6,3.5,3.4,3.5c1.3,0,2.1-0.2,2.8-0.5l0.3,1.3c-0.6,0.3-1.7,0.6-3.3,0.6
			c-3.1,0-4.9-2-4.9-5.1c0-3,1.8-5.4,4.7-5.4c3.3,0,4.2,2.9,4.2,4.7c0,0.4,0,0.7-0.1,0.9H290.3z M295.7,50.9c0-1.2-0.5-3-2.5-3
			c-1.8,0-2.7,1.7-2.8,3H295.7z"/>
		<path class="st0" d="M300.4,46.8l2,5.6c0.3,0.9,0.6,1.7,0.8,2.6h0.1c0.2-0.8,0.5-1.7,0.9-2.6l2-5.6h1.9l-3.9,10h-1.7l-3.8-10
			H300.4z"/>
		<path class="st0" d="M311.7,44c0,0.6-0.4,1.1-1.2,1.1c-0.6,0-1.1-0.5-1.1-1.1c0-0.6,0.5-1.1,1.1-1.1
			C311.3,42.8,311.7,43.3,311.7,44z M309.7,56.9v-10h1.8v10H309.7z"/>
		<path class="st0" d="M315.6,52.2c0,2.5,1.6,3.5,3.4,3.5c1.3,0,2.1-0.2,2.8-0.5l0.3,1.3c-0.6,0.3-1.7,0.6-3.3,0.6
			c-3.1,0-4.9-2-4.9-5.1c0-3,1.8-5.4,4.7-5.4c3.3,0,4.2,2.9,4.2,4.7c0,0.4,0,0.7-0.1,0.9H315.6z M320.9,50.9c0-1.2-0.5-3-2.5-3
			c-1.8,0-2.7,1.7-2.8,3H320.9z"/>
		<path class="st0" d="M325.7,46.8l1.3,5.1c0.3,1.1,0.6,2.2,0.7,3.2h0.1c0.2-1,0.6-2.1,0.9-3.2l1.6-5.1h1.5l1.6,5
			c0.4,1.2,0.7,2.3,0.9,3.3h0.1c0.2-1,0.4-2.1,0.8-3.3l1.4-5h1.8l-3.2,10h-1.7l-1.5-4.8c-0.4-1.1-0.6-2.1-0.9-3.3h0
			c-0.2,1.2-0.6,2.2-0.9,3.3l-1.6,4.8h-1.7l-3-10H325.7z"/>
	</g>
	<path class="st0" d="M374.4,23.3l-3.2,3.2l8.6,8.6l3.2-3.2c1.6-1.6,1.6-4.3,0-6l-2.6-2.6C378.7,21.7,376,21.7,374.4,23.3
		L374.4,23.3z M369.7,28l-15.3,15.3c-0.7,0.7-1.2,1.5-1.5,2.5l-2.3,7.9c-0.2,0.6,0,1.2,0.4,1.6c0.4,0.4,1,0.6,1.6,0.4l7.9-2.3
		c0.9-0.3,1.8-0.8,2.5-1.5l15.3-15.3L369.7,28z"/>
</g>
</svg>
