<?xml version="1.0" encoding="utf-8"?>
<!-- Generator: Adobe Illustrator 24.0.0, SVG Export Plug-In . SVG Version: 6.00 Build 0)  -->
<svg version="1.1" id="Layer_1" xmlns="http://www.w3.org/2000/svg" xmlns:xlink="http://www.w3.org/1999/xlink" x="0px" y="0px"
	 viewBox="0 0 520.5 476.2" style="enable-background:new 0 0 520.5 476.2;" xml:space="preserve">
<style type="text/css">
	.st0{fill:#FFFFFF;}
</style>
<path class="st0" d="M283.3,253.4v-9.9c0-18.4-12.4-33.9-29.3-38.6v-26.5h-7.1v-32.7L520.5,25.5L509.3,0l-282,123.7l-8.3,12.8v24.1
	c-0.2,0-0.3,0-0.5,0H104.9c-14-0.3-44.5-5.3-50-19c-12.5-31.3-36.7-33.8-43.8-33.8c-6.2,0-11.1,5-11.1,11.2c0,6.2,5,11.1,11.1,11.1
	c4.6,0,16,1.9,23.1,19.7c12.4,31.1,64.5,32.9,70.3,33H152v22c-16.9,4.7-29.3,20.2-29.3,38.6v9.9c-18.1,3.8-31.8,20-31.8,39.3v2.4
	c-3.4,1.7-6.7,3.4-10,5.4c-33.6,19.9-54.2,50.7-61.4,91.7l0,0.3c0,0.3-0.4,3.9,0.3,8.9v0c0,0,0,0,0,0c1.1,7.7,4.8,19,16.3,27.8
	c10.9,8.4,26.3,12.6,45.9,12.6c3,0,6.1-0.1,9.3-0.3c2.6,19.7,19.4,34.9,39.8,34.9l143.8,0c22.2,0,40.1-18,40.1-40.1V292.6
	C315,273.3,301.4,257.2,283.3,253.4L283.3,253.4z M91,427c-13.5,0.9-24.7-0.2-33.4-3.3c-10.6-5.1-12.4-15.5-12.7-19.8
	c-2.1-45.1,45.6-91.7,45.6-91.7c0.2-0.1,0.4-0.2,0.6-0.3L91,427z"/>
</svg>
